# xmcd
#
# Track frame offsets:
#	150
#	14406
#	35137
#	54039
#	72332
#	88723
#	107199
#	123828
#	140122
#	155582
#	167554
#	182832
#	201935
#	219490
#	238034
#	258740
#	276246
#
# Disc length: 3877
#
# Revision: 2
# Processed by: cddbd v1.5.1PL0 Copyright (c) Steve Scherf et al.
# Submitted via: audiograbber 1.83.01
# Normalized: r1:DSETVAR1
#
DISCID=010f2311
DTITLE=Various Artist - RC55
DYEAR=1999
DGENRE=Country
TTITLE0=Alan Jackson - Pop A Top
TTITLE1=Tim McGraw - My Best Friend
TTITLE2=Faith Hill - Breathe
TTITLE3=Mark Wills - Back At One
TTITLE4=Kenny Chesney - She Thinks My Tractor's Sexy
TTITLE5=Dixie Chicks - Coboy Take Me Away
TTITLE6=Keith Urban - It's A Love Thing
TTITLE7=Lonestar - Smile
TTITLE8=SheDaisy - This Woman Needs
TTITLE9=Brooks And Dunn - Beer Thirty
TTITLE10=Joe Diffie - The Quittin' Kind
TTITLE11=Gary Allan - Smoke Rings In The Dark
TTITLE12=Chely Wright - It Was
TTITLE13=Trace Adkins - Don't Lie
TTITLE14=Tracy Byrd - Put Your Hand In Mine
TTITLE15=Jo Dee Messina - Because You Love Me
TTITLE16=Mavericks - Here Comes My Baby
EXTD=
EXTT0=
EXTT1=
EXTT2=
EXTT3=
EXTT4=
EXTT5=
EXTT6=
EXTT7=
EXTT8=
EXTT9=
EXTT10=
EXTT11=
EXTT12=
EXTT13=
EXTT14=
EXTT15=
EXTT16=
PLAYORDER=
